<?xml version="1.0" encoding="UTF-8" standalone="no"?>
<!DOCTYPE svg PUBLIC "-//W3C//DTD SVG 1.1//EN" "http://www.w3.org/Graphics/SVG/1.1/DTD/svg11.dtd">
<svg version="1.1" xmlns="http://www.w3.org/2000/svg" xmlns:xlink="http://www.w3.org/1999/xlink" preserveAspectRatio="xMidYMid meet" viewBox="0 0 640 640" width="640" height="640"><defs><path d="M320 0C253.73 0 200 53.72 200 120C200 186.28 253.73 240 320 240C386.28 240 440 186.28 440 120C440 53.72 386.28 0 320 0ZM37.25 240.06C16.94 238.91 0 254.39 0 273.92C0 301.77 0 524.57 0 552.42C0 570.34 14.49 585.28 33.11 586.24C87.69 589.1 198.1 599.59 274.41 638.03C286.13 643.92 300.01 635.89 300.01 623.19C300.01 592.44 300.01 346.45 300.01 315.7C300 309.86 297.11 304.51 291.99 301.38C217.83 255.98 97.7 243.5 37.25 240.06ZM348.03 301.38C342.9 304.51 340.01 310.08 340.01 315.91C340.01 346.64 340.01 592.43 340.01 623.15C340.01 635.89 353.94 643.94 365.69 638.03C441.99 599.62 552.34 589.14 606.9 586.28C625.53 585.3 640.01 570.36 640.01 552.45C640.01 524.6 640.01 301.78 640.01 273.92C640 254.39 623.06 238.91 602.75 240.06C542.31 243.49 422.18 255.98 348.03 301.38Z" id="c1aX4XmWG"></path><path d="M438.59 119.29C438.59 185.14 385.74 238.59 320.64 238.59C255.54 238.59 202.69 185.14 202.69 119.29C202.69 53.45 255.54 0 320.64 0C385.74 0 438.59 53.45 438.59 119.29Z" id="baiGNEhAf"></path><path d="" id="b9sakFapb"></path></defs><g><g><g><use xlink:href="#c1aX4XmWG" opacity="1" fill="#fbf7f7" fill-opacity="1"></use><g><use xlink:href="#c1aX4XmWG" opacity="1" fill-opacity="0" stroke="#000000" stroke-width="1" stroke-opacity="0"></use></g></g><g><use xlink:href="#baiGNEhAf" opacity="1" fill="#fcf9fb" fill-opacity="1"></use></g><g><g><use xlink:href="#b9sakFapb" opacity="1" fill-opacity="0" stroke="#000000" stroke-width="1" stroke-opacity="1"></use></g></g></g></g></svg>